<?xml version="1.0" encoding="utf-8"?>
<!-- Generator: Adobe Illustrator 23.1.0, SVG Export Plug-In . SVG Version: 6.00 Build 0)  -->
<svg version="1.1" id="Layer_1" xmlns="http://www.w3.org/2000/svg" xmlns:xlink="http://www.w3.org/1999/xlink" x="0px" y="0px"
	 viewBox="0 0 142 60" style="enable-background:new 0 0 142 60;" xml:space="preserve">
<style type="text/css">
	.st0{fill-rule:evenodd;clip-rule:evenodd;fill:#3391EC;}
	.st1{fill-rule:evenodd;clip-rule:evenodd;fill:#0075E7;}
	.st2{fill:#0075E7;}
	.st3{fill:#70747C;}
</style>
<path class="st0" d="M121.3,56.1c14.6-5.2,22.1-21.1,16.8-35.5C132.8,6.2,116.6-1.2,102,4C87.5,9.3,79.9,25.2,85.3,39.6
	C90.6,54,106.7,61.4,121.3,56.1z"/>
<path class="st1" d="M134.3,15.1c0.3-0.1,0.5-0.2,0.8-0.3c1.2,1.8,2.2,3.7,3,5.8c4.3,11.7,0.2,24.4-9.3,31.5
	c-3.2-2.4-5.8-5.7-7.3-9.8C117.3,31.3,123.1,19.1,134.3,15.1z"/>
<path class="st1" d="M84.6,32.9c11.2-4,23.6,1.7,27.7,12.8c1.5,4,1.7,8.2,0.7,12.1c-12,0.6-23.4-6.5-27.8-18.2
	c-0.8-2.1-1.3-4.2-1.5-6.3C84,33.1,84.3,33,84.6,32.9z"/>
<path class="st1" d="M102,4c7-2.5,14.4-2.1,20.7,0.6c-1,7.7-6.2,14.6-14,17.4c-7.9,2.8-16.4,0.8-22.1-4.5C89.7,11.5,95,6.5,102,4z"
	/>
<path class="st0" d="M135.3,17.5c1.2-0.4,2.3-0.7,3.5-0.9c0.5,1,1,2.1,1.4,3.1c4.2,11.5,1,23.8-7.4,31.8c-4-2.1-7.2-5.6-8.8-10.1
	C120.4,31.8,125.4,21.1,135.3,17.5z"/>
<path class="st0" d="M85.5,35.4c9.8-3.5,20.7,1.5,24.3,11.2c1.7,4.5,1.5,9.3-0.2,13.4C97.9,59.2,87.2,51.8,83,40.3
	c-0.4-1.1-0.7-2.1-1-3.2C83.1,36.4,84.3,35.8,85.5,35.4z"/>
<path class="st0" d="M101.2,1.8c6.4-2.3,13-2.3,19.1-0.6c0.3,7.9-4.5,15.5-12.4,18.4c-8,2.9-16.6,0.1-21.5-6.2
	C89.8,8.2,94.9,4.1,101.2,1.8z"/>
<path class="st2" d="M1,30.6c1.9-0.4,3.4-0.8,4.5-1.3c1.2-0.5,2-1,2.5-1.6c0.5-0.6,0.8-1.4,0.8-2.2c0-1-0.1-1.9-0.4-2.8
	c-0.3-0.9-0.6-1.6-1.1-2.2c-0.4-0.6-0.9-0.8-1.5-0.8c-0.3,0-0.6,0.1-0.9,0.3c-0.3,0.2-0.5,0.5-0.6,0.8c-0.1,0.3-0.2,0.6-0.2,0.9
	c0,0.2,0,0.4,0.1,0.6c0.3,0.3,0.9,0.5,1.8,0.6c0.9,0.1,2.3,0.1,4,0.1h2.3l0.2,2l-0.2,2l-3.1,0c-2,0-3.7-0.2-4.9-0.5
	c-1.2-0.3-2.1-1-2.5-2.1c-0.3-0.7-0.4-1.4-0.4-2.2c0-1,0.2-2,0.6-2.9c0.4-1,1-1.8,1.7-2.4c0.7-0.6,1.5-0.9,2.4-0.9
	c1,0,1.9,0.4,2.7,1.2c0.8,0.8,1.5,1.9,1.9,3.3c0.5,1.4,0.7,2.8,0.7,4.4c0,1.5-0.4,2.9-1.1,4.2c-0.8,1.2-1.8,2.3-3.2,3.1
	c-1.4,0.8-3,1.4-5,1.8L1,30.6z M12.2,23h1.2c1.5,0,2.6-0.1,3.3-0.4c0.7-0.3,1-0.6,1-1.1c0-0.3-0.2-0.9-0.5-1.9c-0.4-1-0.6-1.6-0.8-2
	l2.8-1.5c0.3,0.7,0.6,1.6,1,2.7c0.3,1.1,0.5,2.1,0.5,3c0,1.7-0.6,3-1.7,4C17.8,26.5,16.2,27,14,27h-1.8V23z M14.4,11l2.1,2.1
	l-2.1,2.2l-2.1-2.2L14.4,11z M18.6,11l2.1,2.1l-2.1,2.2l-2.1-2.2L18.6,11z M28.3,27c-1.8,0-3.1-0.5-3.9-1.6
	c-0.8-1.1-1.2-2.6-1.2-4.7c-0.1-4.7-0.3-8.4-0.7-11.1l3.3-0.7c0.2,1.4,0.3,3.2,0.4,5.5c0.1,2.2,0.2,4.3,0.2,6.2
	c0,0.6,0.1,1.1,0.2,1.5c0.1,0.3,0.3,0.6,0.6,0.7c0.3,0.1,0.7,0.2,1.2,0.2h0.1l0.2,2L28.3,27L28.3,27z M28.2,23h0.1
	c1.3,0,2.2-0.1,2.9-0.2c0.7-0.1,1.2-0.3,1.4-0.5c0.3-0.2,0.4-0.6,0.5-1c0-0.7,0-1.5-0.2-2.6l2.7-0.5c0.2,1.2,0.3,2.5,0.3,4
	c0,0.2,0.2,0.4,0.4,0.6c0.3,0.2,0.7,0.3,1.2,0.3h0.1l0.2,2l-0.2,2h-0.1c-0.7,0-1.4-0.2-2-0.6c-0.6-0.4-1.1-0.9-1.5-1.5l0.6,0.1
	c-0.5,0.7-1.2,1.2-2.2,1.5c-1,0.3-2.4,0.4-4.2,0.4h-0.1V23z M32.2,33.2l-2.1-2.1l2.1-2.2l2.1,2.2L32.2,33.2z M28,33.2l-2.1-2.1
	l2.1-2.2l2.1,2.2L28,33.2z M55.7,27c-3.6,0-5.9-1.4-6.8-4l2-1.9c0.1,0.3,0.3,0.5,0.6,0.8c0.3,0.3,0.7,0.5,1.2,0.8
	c0.5,0.2,1.1,0.3,1.7,0.3h1.5l0.2,2l-0.2,2H55.7z M37.5,23h1.7c1.9,0,3.6-0.2,5.2-0.6c1.6-0.4,3.4-1.1,5.3-2.1
	c1.4-0.8,2.4-1.2,2.9-1.3l0.1,3c-0.8-0.1-1.6-0.3-2.4-0.6c-0.8-0.3-1.7-0.7-2.8-1.2c-0.6-0.3-1.3-0.6-1.9-0.7
	c-0.6-0.2-1.2-0.3-1.7-0.3c-0.6,0-1.1,0.2-1.5,0.5c-0.4,0.3-0.8,0.6-1,1l-2.2-1.7c1.2-2.5,2.9-3.7,4.9-3.7c0.7,0,1.3,0.1,2,0.3
	c0.6,0.2,1.6,0.6,2.8,1.3c0.9,0.5,1.7,0.8,2.3,1.1c0.7,0.2,1.4,0.4,2.2,0.6l0.1,3.6c-0.4,0.1-1.2,0.5-2.3,1.1l-0.9,0.5
	c-1.7,0.9-3.1,1.5-4.2,2c-1.2,0.5-2.3,0.8-3.5,1c-1.2,0.2-2.6,0.3-4.2,0.3h-0.7V23z M44.7,29.8c0.3-0.4,0.7-0.7,1-1l0.8,0.8
	c1.1,1.1,1.6,1.6,1.6,1.6l-2.4,2.4c0,0-0.5-0.5-1.6-1.6l-0.8-0.8L44.7,29.8z M55.7,23h1.2c1.5,0,2.6-0.1,3.3-0.4
	c0.7-0.3,1-0.6,1-1.1c0-0.3-0.2-0.9-0.5-1.9c-0.4-1-0.6-1.6-0.8-2l2.8-1.5c0.3,0.7,0.6,1.6,1,2.7c0.3,1.1,0.5,2.1,0.5,3
	c0,1.7-0.6,3-1.7,4c-1.1,0.9-2.7,1.4-4.9,1.4h-1.8V23z M60.1,33.2L58,31.1l2.1-2.2l2.1,2.2L60.1,33.2z M55.9,33.2l-2.1-2.1l2.1-2.2
	l2.1,2.2L55.9,33.2z M71.3,27.1c-1.4,0-2.6-0.2-3.6-0.7c-0.9-0.4-1.7-0.9-2.1-1.3l1.4-2.8c0.5,0.3,1.1,0.5,1.7,0.7
	c0.6,0.2,1.4,0.3,2.2,0.3c0.8,0,1.6-0.1,2.1-0.3c0.6-0.2,0.9-0.4,1.1-0.6c0-0.2-0.1-0.6-0.3-1.1c-0.2-0.5-0.7-1.2-1.5-1.9
	c-0.7-0.8-1.8-1.6-3.2-2.5l1.9-3.6c1.9,1.3,3.4,2.8,4.5,4.4c1.1,1.6,1.7,3.1,1.7,4.6c0,0.7-0.1,1.3-0.4,1.9
	c-0.4,0.9-1.1,1.6-2.2,2.1C73.7,26.9,72.5,27.1,71.3,27.1z"/>
<path class="st3" d="M2.5,51.9c0.1-0.5,0.1-1.3,0.1-2.5c0-1.1,0-2.3-0.1-3.6c-0.1-1.3-0.1-2.1-0.2-2.6l1.4-0.3
	c0.1,0.5,0.1,1.3,0.2,2.5c0.1,1.2,0.1,2.4,0.1,3.5c0,1.4,0,2.4-0.1,3.1L2.5,51.9z M7.9,52c-0.7,0-1.3-0.1-1.8-0.3
	c-0.5-0.2-0.9-0.4-1.1-0.7l0.6-1.1c0.3,0.1,0.6,0.3,0.9,0.4c0.3,0.1,0.7,0.2,1.2,0.2c0.4,0,0.8-0.1,1.1-0.2c0.3-0.1,0.5-0.2,0.6-0.4
	c0-0.1,0-0.1,0-0.2c0-0.3-0.2-0.8-0.6-1.3c-0.4-0.5-1.1-1.1-2-1.8l0.8-1.4c0.9,0.7,1.7,1.4,2.3,2.2c0.6,0.8,0.8,1.5,0.8,2.2
	c0,0.3-0.1,0.6-0.2,0.9c-0.2,0.4-0.5,0.8-1,1C9,51.9,8.5,52,7.9,52z M15,52c-0.5,0-1-0.2-1.3-0.6c-0.3-0.4-0.6-1-0.8-1.7l1-0.6
	c0.1,0.5,0.3,0.8,0.4,1s0.4,0.3,0.7,0.3h0.1l0.1,0.8L15.1,52H15z M10.1,54.3c0.5-0.2,1-0.5,1.5-0.8c0.4-0.3,0.8-0.6,1.1-0.9
	c0.3-0.3,0.4-0.6,0.4-0.8c0-0.2-0.1-0.5-0.2-0.9c-0.1-0.4-0.2-1-0.4-1.6c-0.1-0.2-0.1-0.4-0.1-0.5l1.3-0.5c0.2,0.6,0.3,1.2,0.5,1.9
	c0.1,0.6,0.2,1.2,0.2,1.7c0,0.8-0.3,1.5-1,2.2c-0.6,0.7-1.5,1.2-2.5,1.7L10.1,54.3z M15,50.4h0.2c1.3,0,2.3-0.1,3-0.3
	c0.6-0.2,1-0.6,1.1-1.1c0-0.4-0.1-0.9-0.2-1.3c-0.1-0.5-0.3-0.8-0.5-1.1C18.3,46.2,18,46,17.7,46c-0.2,0-0.3,0.1-0.5,0.2
	c-0.1,0.1-0.3,0.3-0.4,0.5c-0.1,0.2-0.1,0.3-0.1,0.5c0,0.1,0,0.3,0.1,0.4c0.1,0.2,0.4,0.3,0.7,0.4c0.3,0.1,0.7,0.2,1.2,0.2
	c0.3,0,0.6,0,0.9-0.1v1.5c-0.4,0.1-0.8,0.1-1.2,0.1c-0.6,0-1.1-0.1-1.6-0.3c-0.5-0.2-0.8-0.5-1-0.9c-0.2-0.3-0.2-0.6-0.2-1
	c0-0.5,0.1-0.9,0.3-1.3c0.2-0.4,0.5-0.8,0.8-1.1c0.4-0.3,0.7-0.4,1.1-0.4c0.5,0,0.9,0.2,1.3,0.6c0.4,0.4,0.7,0.9,0.9,1.6
	c0.2,0.6,0.3,1.3,0.3,2c0,1-0.5,1.8-1.4,2.3c-0.9,0.5-2.1,0.8-3.8,0.8H15V50.4z M17.7,41.6l0.7,0.7l0.3,0.4l-1.1,1.1l-1.1-1.1
	L17.7,41.6z M33.4,52c-0.7,0-1.2-0.3-1.5-0.8s-0.5-1.2-0.6-2L32,49c0,0.4,0.1,0.7,0.1,0.8c0.1,0.2,0.2,0.3,0.4,0.4
	c0.2,0.1,0.4,0.1,0.8,0.1h0.1l0.1,0.8L33.5,52H33.4z M28.3,55.2c-0.7,0-1.3-0.1-1.8-0.4c-0.5-0.3-1-0.6-1.3-1.1
	c-0.3-0.5-0.5-1.1-0.5-1.7c0-0.5,0.1-1,0.3-1.6c0.2-0.6,0.4-1.1,0.6-1.6l1.1,0.5c-0.2,0.5-0.4,0.9-0.5,1.3c-0.1,0.4-0.2,0.8-0.2,1.1
	c0,0.6,0.2,1,0.6,1.4c0.4,0.3,1,0.5,1.7,0.5c1.8,0,2.6-0.9,2.6-2.8c-0.1-1.6-0.1-3.1-0.2-4.5c-0.1-1.4-0.2-2.4-0.3-3.1l1.4-0.3
	c0.1,1.1,0.3,3.7,0.4,7.9c0,1.4-0.3,2.5-1,3.3C30.5,54.8,29.5,55.2,28.3,55.2z M43.6,52c-0.5,0-0.9-0.1-1.3-0.4
	c-0.4-0.3-0.6-0.7-0.8-1.3c-0.1-0.3-0.2-1-0.5-2.1l1.2-0.3c0.1,0.5,0.2,1,0.2,1.3c0.1,0.3,0.1,0.5,0.2,0.7c0.1,0.2,0.2,0.4,0.3,0.5
	c0.2,0.1,0.4,0.2,0.6,0.2h0.1l0.1,0.8L43.6,52L43.6,52z M40.3,50.4L40.3,50.4c0.3,0,0.6-0.1,0.8-0.2c0.2-0.1,0.4-0.3,0.4-0.5l1,0.1
	c0,0.4-0.2,0.8-0.4,1.1c-0.2,0.3-0.5,0.6-0.8,0.8c-0.3,0.2-0.6,0.3-1,0.3h0V50.4z M37,50.4L37,50.4c0.5,0,0.8-0.3,1.1-0.8
	c0.2-0.3,0.3-0.8,0.4-1.5l1.2,0c-0.1,0.5-0.2,0.9-0.2,1.2c0,0.7,0.3,1,0.8,1h0l0.1,0.8L40.4,52h0c-0.5,0-0.8-0.1-1.1-0.4
	s-0.5-0.6-0.6-1.1l0.3,0c-0.2,0.5-0.5,0.8-0.8,1.1C37.8,51.9,37.4,52,37,52h0V50.4z M33.4,52l-0.1-0.8l0.1-0.8h0
	c0.3,0,0.5-0.1,0.8-0.2c0.3-0.1,0.5-0.3,0.6-0.5c0.2-0.2,0.3-0.5,0.4-0.7c0.1-0.3,0.2-0.5,0.3-0.8l1.2,0.1c0,0,0,0.1-0.1,0.3
	c-0.1,0.5-0.2,0.8-0.2,1.1s0,0.4,0.1,0.5c0.1,0.1,0.2,0.2,0.4,0.2h0l0.1,0.8L37,52h0c-0.4,0-0.7-0.1-1-0.3c-0.3-0.2-0.4-0.5-0.5-0.8
	c-0.3,0.4-0.6,0.6-0.9,0.8C34.2,51.9,33.9,52,33.4,52L33.4,52z M43.5,50.4h0.7c0.6,0,1.1-0.1,1.3-0.2c0.3-0.1,0.4-0.4,0.4-0.7
	c0-0.2-0.1-0.6-0.3-1.1c-0.2-0.5-0.3-0.9-0.4-1.1l1.2-0.6c0.2,0.3,0.3,0.8,0.5,1.4c0.2,0.6,0.3,1.1,0.3,1.5c0,0.8-0.3,1.4-0.8,1.8
	c-0.5,0.4-1.3,0.6-2.2,0.6h-0.7V50.4z M45.5,43.9l0.7,0.7l0.3,0.3L45.5,46L44.4,45L45.5,43.9z M55.5,51.1c-0.5,0.2-1,0.3-1.5,0.3
	c-0.7,0-1.3-0.2-1.8-0.5c-0.5-0.3-0.7-0.8-0.7-1.4c0-0.7,0.3-1.3,0.9-1.8c0.6-0.5,1.4-0.9,2.4-1.3l0.3,1.5c-0.6,0.1-1.1,0.3-1.6,0.6
	c-0.5,0.3-0.7,0.5-0.7,0.8c0,0.2,0.1,0.4,0.3,0.5c0.2,0.1,0.5,0.2,0.9,0.2c0.4,0,0.8-0.1,1.3-0.3L55.5,51.1z M57.2,52
	c-0.7,0-1.3-0.2-1.7-0.7c-0.4-0.5-0.6-1.2-0.8-2.2l-0.4-3.4l1.3-0.3c0,0.2,0,0.4,0,0.5c0,0.2,0,0.3,0,0.5l0.3,2.5
	c0,0.4,0.1,0.7,0.2,0.9c0.1,0.2,0.2,0.3,0.3,0.4c0.1,0.1,0.3,0.1,0.6,0.1h0.2l0.1,0.8L57.4,52H57.2z M57.3,50.4h0.7
	c0.6,0,1.1-0.1,1.3-0.2c0.3-0.1,0.4-0.4,0.4-0.7c0-0.2-0.1-0.6-0.3-1.1c-0.2-0.5-0.3-0.9-0.4-1.1l1.2-0.6c0.2,0.3,0.3,0.8,0.5,1.4
	c0.2,0.6,0.3,1.1,0.3,1.5c0,0.8-0.3,1.4-0.8,1.8c-0.5,0.4-1.3,0.6-2.2,0.6h-0.7V50.4z M59.2,43.9l0.7,0.7l0.3,0.3L59.2,46L58.2,45
	L59.2,43.9z M64.9,52c-0.9,0-1.5-0.2-1.9-0.7s-0.6-1.3-0.6-2.3c0-1,0-2-0.1-3.1c0-1.1-0.1-2-0.2-2.6l1.4-0.3
	c0.1,0.6,0.1,1.5,0.2,2.7c0.1,1.2,0.1,2.2,0.1,3.1c0,0.5,0,0.8,0.1,1c0.1,0.2,0.2,0.4,0.3,0.5c0.2,0.1,0.4,0.2,0.8,0.2H65l0.1,0.8
	L64.9,52L64.9,52z M71.8,50.4L71.8,50.4c0.3,0,0.5-0.1,0.6-0.2c0.1-0.2,0.2-0.4,0.2-0.6c0-0.3-0.1-0.6-0.2-1.1
	c-0.2-0.5-0.3-0.9-0.4-1.2l1.2-0.6c0.2,0.4,0.3,0.8,0.5,1.4c0.2,0.6,0.3,1.1,0.3,1.5c0,0.5-0.1,0.9-0.3,1.2s-0.4,0.7-0.7,0.9
	c-0.3,0.2-0.7,0.3-1.1,0.3h0V50.4z M68.5,50.4L68.5,50.4c0.5,0,0.8-0.3,1.1-0.8c0.2-0.3,0.3-0.8,0.4-1.5l1.2,0
	c-0.1,0.5-0.2,0.9-0.2,1.2c0,0.7,0.3,1,0.8,1h0l0.1,0.8L71.9,52h0c-0.5,0-0.8-0.1-1.1-0.4c-0.3-0.3-0.5-0.6-0.6-1.1l0.3,0
	c-0.2,0.5-0.5,0.8-0.8,1.1c-0.3,0.3-0.7,0.4-1.1,0.4h0V50.4z M64.9,52l-0.1-0.8l0.1-0.8H65c0.3,0,0.5-0.1,0.8-0.2
	c0.3-0.1,0.5-0.3,0.6-0.5c0.2-0.2,0.3-0.5,0.4-0.7c0.1-0.3,0.2-0.5,0.3-0.8l1.2,0.1c0,0,0,0.1-0.1,0.3c-0.1,0.5-0.2,0.8-0.2,1.1
	s0,0.4,0.1,0.5c0.1,0.1,0.2,0.2,0.4,0.2h0l0.1,0.8L68.5,52h-0.1c-0.4,0-0.7-0.1-0.9-0.3c-0.3-0.2-0.4-0.5-0.5-0.8
	c-0.3,0.4-0.6,0.6-0.9,0.8S65.3,52,64.9,52L64.9,52z M73.3,54.3c0.5-0.2,1-0.5,1.5-0.8c0.4-0.3,0.8-0.6,1.1-0.9
	c0.3-0.3,0.4-0.6,0.4-0.8c0-0.2,0-0.5-0.2-0.9c-0.1-0.4-0.2-1-0.4-1.6c-0.1-0.2-0.1-0.4-0.1-0.5l1.3-0.5c0.2,0.6,0.3,1.2,0.5,1.9
	c0.1,0.6,0.2,1.2,0.2,1.7c0,0.8-0.3,1.5-1,2.2c-0.6,0.7-1.5,1.2-2.5,1.7L73.3,54.3z"/>
</svg>
